inDegrees=yes
name=ik_S46_A09_T02
DataType=double
version=3
OpenSimVersion=4.3-2021-08-27-4bc7ad9
endheader
time	pelvis_tilt	pelvis_list	pelvis_rotation	pelvis_tx	pelvis_ty	pelvis_tz	hip_flexion_r	hip_adduction_r	hip_rotation_r	knee_angle_r	knee_angle_r_beta	ankle_angle_r	subtalar_angle_r	mtp_angle_r	hip_flexion_l	hip_adduction_l	hip_rotation_l	knee_angle_l	knee_angle_l_beta	ankle_angle_l	subtalar_angle_l	mtp_angle_l	lumbar_extension	lumbar_bending	lumbar_rotation	arm_flex_r	arm_add_r	arm_rot_r	elbow_flex_r	pro_sup_r	wrist_flex_r	wrist_dev_r	arm_flex_l	arm_add_l	arm_rot_l	elbow_flex_l	pro_sup_l	wrist_flex_l	wrist_dev_l
19.13999999999968	-9.778183573533141	-1.975452502020757	24.33062756194571	0	0.9399999999999999	0	35.16089082462992	-9.934791091595114	-9.439868443158694	41.58145083784213	0.7257332248764998	0	0	0	35.16089082462992	-9.934791091595114	-9.439868443158694	41.58145083784213	0.7257332248764998	0	0	0	-8.507572572068204	-1.243506952319375	3.586465195499199	57.9856176776693	-9.918600908844773	11.62612547416724	56.74656248041443	95.17214818904334	0	0	83.19794012770852	-2.918184485302505	16.48128360037164	-3.330503355732204	80.02110433971818	0	0
19.15999999999968	-9.778675377787048	-1.946015722549088	24.49213867830446	0	0.9399999999999999	0	35.16576739673263	-9.934900648703103	-9.440474903477591	41.58607320923101	0.7258139004764859	0	0	0	35.16576739673263	-9.934900648703103	-9.440474903477591	41.58607320923101	0.7258139004764859	0	0	0	-8.500096395070006	-1.196352892153419	3.471303009692454	57.89944746520279	-9.995111309749342	11.64890156215129	56.85279039675758	95.16207070292839	0	0	83.21132412274682	-3.144752604823204	16.13258087270371	-2.909865684715434	81.46804757114113	0	0
19.17999999999968	-9.751461393534965	-1.94651392912107	24.5957365917672	0	0.9399999999999999	0	35.17050414788882	-9.935008504696633	-9.441069254551442	41.5905043310823	0.7258912381423479	0	0	0	35.17050414788882	-9.935008504696633	-9.441069254551442	41.5905043310823	0.7258912381423479	0	0	0	-8.476466636651331	-1.204284586527125	3.452470441384725	57.81420689331681	-10.04709370909403	11.54928874497384	56.92838525640846	95.11976478511826	0	0	83.12019987125038	-3.507153353952265	15.87672799500281	-2.670835365770897	81.77231520324318	0	0
19.19999999999968	-9.714112572308718	-1.965128990730114	24.72977687352513	0	0.9399999999999999	0	35.1754932348679	-9.935121641782345	-9.441693722502349	41.59518465548714	0.7259729252132738	0	0	0	35.1754932348679	-9.935121641782345	-9.441693722502349	41.59518465548714	0.7259729252132738	0	0	0	-8.453152365186403	-1.220883173644011	3.358231521772562	57.72940690313685	-10.00934910212091	11.42393789572716	56.95762776231552	95.14496731188171	0	0	82.83549179357404	-4.175827764642373	15.85847563488292	-1.436507203804692	82.79119223561874	0	0
19.21999999999968	-9.715118220116706	-1.991406225656406	24.90965409687109	0	0.9399999999999999	0	35.17943806958611	-9.935210829588941	-9.442186607074044	41.59889233750689	0.7260376364721355	0	0	0	35.17943806958611	-9.935210829588941	-9.442186607074044	41.59889233750689	0.7260376364721355	0	0	0	-8.467870051482057	-1.225385020907771	3.244656048645286	57.7253441772799	-9.97639770483719	11.30602926183893	56.9861576862512	95.14742854565299	0	0	82.3578823540353	-4.976095855512582	15.72878150707317	0.5500165375102809	83.98351779927246	0	0
19.23999999999968	-9.717814841897349	-1.996411161631979	25.18773539664934	0	0.9399999999999999	0	35.18298207674597	-9.935290703696637	-9.442628574724841	41.60223034968001	0.7260958957750281	-6.568511407309104e-36	0	0	35.18298207674597	-9.935290703696637	-9.442628574724841	41.60223034968001	0.7260958957750281	-6.568511407309104e-36	0	0	-8.47580224891891	-1.202255011018179	3.092927874597025	57.71260202232229	-10.03193343189789	11.20065519797376	57.0106913204835	95.15600939527741	0	0	81.54053613309664	-5.915011062658607	15.25058024754783	3.544934867735522	85.53013905325282	0	0
19.25999999999968	-9.720473979378195	-1.985964353514902	25.55644815164035	0	0.9399999999999999	0	35.19678063822381	-9.935601548575189	-9.444350239217435	41.61518071641002	0.7263219223138074	0	0	0	35.19678063822381	-9.935601548575189	-9.444350239217435	41.61518071641002	0.7263219223138074	0	0	0	-8.482141992356599	-1.149523401325409	2.852063195525589	57.67853970213554	-10.12775172609055	11.06227028866137	57.05518918846523	95.17918011799638	0	0	80.37602350607929	-6.991116742786347	14.35856201629514	7.581880581619391	87.39731739179298	0	0
19.27999999999968	-9.735149265792339	-1.970227978078678	25.5289031374071	0	0.9399999999999999	0	35.21480699039272	-9.936005657365016	-9.446593945618972	41.63211312558307	0.726617448604172	0	0	0	35.21480699039272	-9.936005657365016	-9.446593945618972	41.63211312558307	0.726617448604172	0	0	0	-8.48400534525528	-1.158957201120884	3.048738670381931	57.6648534438751	-10.31433885405968	10.90935531047151	57.10162287954916	95.12586558589361	0	0	80.36305945743986	-6.784389792353908	14.37467544023337	10.61868508326625	88.27351520537664	0	0
19.29999999999968	-9.729592688295073	-1.970863404577609	25.99602178327567	0	0.9399999999999999	0	35.23048448914705	-9.936356061901565	-9.448542592391892	41.64683926094536	0.7268744681523384	0	0	0	35.23048448914705	-9.936356061901565	-9.448542592391892	41.64683926094536	0.7268744681523384	0	0	0	-8.487586918836616	-1.117909769517361	2.776208656377461	57.61516578564665	-10.49459786237543	10.73793767977283	57.27016336337052	95.01513739065034	0	0	78.97374014270167	-7.808874584599774	13.27874169916072	15.72232894104487	89.55831080614362	0	0
19.31999999999968	-9.725307904222907	-1.973915453185619	26.4187755143361	0	0.9399999999999999	0	35.23517014418452	-9.936460257660428	-9.449123038380646	41.65126257595053	0.7269516695630315	0	0	0	35.23517014418452	-9.936460257660428	-9.449123038380646	41.65126257595053	0.7269516695630315	0	0	0	-8.495534547860055	-1.074148751739809	2.472599437114122	57.57261828575284	-10.61194973369082	10.67916583748556	57.30701869383761	94.97551208813402	0	0	77.54627665307001	-8.870930885276824	12.2570733711035	20.85262023299782	90.00012222162822	0	0
19.33999999999968	-9.666125920615169	-2.035886504995912	27.78031360441062	0	0.9399999999999999	0	35.72433936853873	-9.943665615183452	-9.496348733599586	42.2548073333115	0.7374855127621307	0	0	0	35.72433936853873	-9.943665615183452	-9.496348733599586	42.2548073333115	0.7374855127621307	0	0	0	-8.529640860534471	-0.8631581567327669	1.347354150989796	57.5034337543635	-10.78038433600594	10.6277076256801	57.53140009913182	94.74864448636968	0	0	74.31095428952651	-10.67271483696308	11.83776990384088	31.22056696072868	87.15573516469446	0	0
19.35999999999968	-9.645495302744603	-2.057631637872788	28.09937049452657	0	0.9399999999999999	0	35.7287619791194	-9.943757917977655	-9.496878335177856	42.25897638514217	0.7375582764432622	0	0	0	35.7287619791194	-9.943757917977655	-9.496878335177856	42.25897638514217	0.7375582764432622	0	0	0	-8.523482585317758	-0.8831840502903813	1.308258666585475	57.45557146996374	-10.94923536558571	10.40122656416914	57.54390181297912	94.76353450137647	0	0	72.71383472853134	-11.2939919866081	11.85891089893153	33.05084035873641	86.94794743179241	0	0
19.37999999999968	-9.625720356586976	-2.078078750658524	28.00285606109881	0	0.9399999999999999	0	35.74272302391791	-9.944044041120852	-9.498532201160891	42.27228835559591	0.7377906141576082	0	0	0	35.74272302391791	-9.944044041120852	-9.498532201160891	42.27228835559591	0.7377906141576082	0	0	0	-8.499465748797267	-0.9690654755804197	1.654863440336393	57.36153594712988	-11.16945118073138	10.24506628894385	57.69832460071312	94.62603560542912	0	0	71.01128429560427	-11.5274034109541	12.26146512227607	39.78781000969204	82.95544293118397	0	0
19.39999999999968	-9.595542624303771	-2.090889472578045	28.26132586715319	0	0.9399999999999999	0	35.74828277949705	-9.944159018490426	-9.499194525086825	42.27755337574435	0.7378825060943823	0	0	0	35.74828277949705	-9.944159018490426	-9.499194525086825	42.27755337574435	0.7378825060943823	0	0	0	-8.480877269636983	-0.9954614566806675	1.650896768475067	57.24438909368416	-11.39534527384484	10.06671850457538	57.79294100570021	94.54134527520155	0	0	69.53135009814646	-11.93561422711297	12.65757505079858	42.86378819429753	82.23951850604374	0	0
19.41999999999967	-9.551765567744177	-2.10297258919052	28.43792040910224	0	0.9399999999999999	0	35.75367665738865	-9.944270440351129	-9.499836758350394	42.28266113787613	0.7379716533609906	0	0	0	35.75367665738865	-9.944270440351129	-9.499836758350394	42.28266113787613	0.7379716533609906	0	0	0	-8.445763525217888	-1.043836755758765	1.753746654111092	57.12427820103899	-11.60388772667897	9.882253366410724	57.85161586702262	94.43246346847322	0	0	67.9744106941414	-12.16985413456918	13.34212492789103	45.74049339456884	81.18947308498862	0	0
19.43999999999967	-9.51540141023635	-2.101123693083953	28.5256850917489	0	0.9399999999999999	0	35.75939837514693	-9.944388588874935	-9.500518014531661	42.28807507990619	0.7380661444749272	0	0	0	35.75939837514693	-9.944388588874935	-9.500518014531661	42.28807507990619	0.7380661444749272	0	0	0	-8.407300779060188	-1.084854957943554	1.915933068239596	57.0464283752147	-11.81051837337868	9.742386751769139	57.86201111295284	94.34909802370312	0	0	66.41903264417614	-12.15018748121913	13.84889823252875	48.27940613161086	79.72499929565373	0	0
